<svg xmlns="http://www.w3.org/2000/svg" xmlns:xlink="http://www.w3.org/1999/xlink" width="500" zoomAndPan="magnify" viewBox="0 0 375 374.999991" height="500" preserveAspectRatio="xMidYMid meet" version="1.0"><defs><clipPath id="3f869c567f"><path d="M 317 75 L 346.910156 75 L 346.910156 105 L 317 105 Z M 317 75 " clip-rule="nonzero"/></clipPath><clipPath id="644e34fc99"><path d="M 29 73 L 295 73 L 295 337.230469 L 29 337.230469 Z M 29 73 " clip-rule="nonzero"/></clipPath></defs><path fill="#ffc2e5" d="M 333.898438 198.457031 C 331.589844 198.796875 329.234375 198.976562 326.835938 198.976562 C 304.75 198.976562 286.058594 184.527344 279.648438 164.570312 C 278.550781 161.160156 275.765625 158.535156 272.246094 157.863281 C 235.566406 150.878906 207.832031 118.679688 207.832031 79.96875 C 207.832031 63.710938 212.738281 48.605469 221.132812 36.027344 C 223.128906 33.039062 221.464844 29.054688 217.9375 28.355469 C 208.253906 26.4375 198.242188 25.421875 187.996094 25.421875 C 103.097656 25.421875 34.277344 94.246094 34.277344 179.140625 C 34.277344 264.035156 103.097656 332.859375 187.996094 332.859375 C 264.507812 332.859375 327.773438 277.164062 339.671875 203.996094 C 340.214844 200.675781 337.222656 197.96875 333.898438 198.457031 Z M 333.898438 198.457031 " fill-opacity="1" fill-rule="nonzero"/><path fill="#d67aff" d="M 138.410156 129.554688 C 138.410156 130.203125 138.375 130.851562 138.3125 131.5 C 138.25 132.144531 138.152344 132.785156 138.027344 133.425781 C 137.902344 134.0625 137.742188 134.691406 137.554688 135.3125 C 137.367188 135.933594 137.148438 136.542969 136.898438 137.144531 C 136.648438 137.746094 136.371094 138.332031 136.066406 138.902344 C 135.761719 139.476562 135.425781 140.03125 135.066406 140.574219 C 134.707031 141.113281 134.320312 141.632812 133.90625 142.136719 C 133.496094 142.636719 133.058594 143.117188 132.601562 143.578125 C 132.140625 144.039062 131.660156 144.472656 131.15625 144.886719 C 130.65625 145.296875 130.132812 145.683594 129.59375 146.042969 C 129.054688 146.40625 128.5 146.738281 127.925781 147.046875 C 127.351562 147.351562 126.765625 147.628906 126.164062 147.878906 C 125.566406 148.125 124.953125 148.34375 124.332031 148.53125 C 123.710938 148.722656 123.082031 148.878906 122.445312 149.003906 C 121.808594 149.132812 121.167969 149.226562 120.519531 149.292969 C 119.875 149.355469 119.226562 149.386719 118.578125 149.386719 C 117.925781 149.386719 117.277344 149.355469 116.632812 149.292969 C 115.988281 149.226562 115.34375 149.132812 114.707031 149.003906 C 114.070312 148.878906 113.441406 148.722656 112.820312 148.53125 C 112.199219 148.34375 111.585938 148.125 110.988281 147.878906 C 110.386719 147.628906 109.800781 147.351562 109.226562 147.046875 C 108.65625 146.738281 108.097656 146.40625 107.558594 146.042969 C 107.019531 145.683594 106.496094 145.296875 105.996094 144.886719 C 105.492188 144.472656 105.011719 144.039062 104.554688 143.578125 C 104.09375 143.117188 103.660156 142.636719 103.246094 142.136719 C 102.835938 141.632812 102.449219 141.113281 102.085938 140.574219 C 101.726562 140.03125 101.394531 139.476562 101.085938 138.902344 C 100.78125 138.332031 100.503906 137.746094 100.253906 137.144531 C 100.003906 136.542969 99.789062 135.933594 99.597656 135.3125 C 99.410156 134.691406 99.253906 134.0625 99.125 133.425781 C 99 132.785156 98.902344 132.144531 98.839844 131.5 C 98.777344 130.851562 98.746094 130.203125 98.746094 129.554688 C 98.746094 128.90625 98.777344 128.257812 98.839844 127.609375 C 98.902344 126.964844 99 126.324219 99.125 125.6875 C 99.253906 125.050781 99.410156 124.417969 99.597656 123.796875 C 99.789062 123.175781 100.003906 122.566406 100.253906 121.964844 C 100.503906 121.367188 100.78125 120.777344 101.085938 120.207031 C 101.394531 119.632812 101.726562 119.078125 102.085938 118.535156 C 102.449219 117.996094 102.835938 117.476562 103.246094 116.972656 C 103.660156 116.472656 104.09375 115.992188 104.554688 115.53125 C 105.011719 115.074219 105.492188 114.636719 105.996094 114.226562 C 106.496094 113.8125 107.019531 113.425781 107.558594 113.066406 C 108.097656 112.703125 108.65625 112.371094 109.226562 112.066406 C 109.800781 111.757812 110.386719 111.480469 110.988281 111.234375 C 111.585938 110.984375 112.199219 110.765625 112.820312 110.578125 C 113.441406 110.386719 114.070312 110.230469 114.707031 110.105469 C 115.34375 109.976562 115.988281 109.882812 116.632812 109.820312 C 117.277344 109.753906 117.925781 109.722656 118.578125 109.722656 C 119.226562 109.722656 119.875 109.753906 120.519531 109.820312 C 121.167969 109.882812 121.808594 109.976562 122.445312 110.105469 C 123.082031 110.230469 123.710938 110.386719 124.332031 110.578125 C 124.953125 110.765625 125.566406 110.984375 126.164062 111.234375 C 126.765625 111.480469 127.351562 111.757812 127.925781 112.066406 C 128.5 112.371094 129.054688 112.703125 129.59375 113.066406 C 130.132812 113.425781 130.65625 113.8125 131.15625 114.226562 C 131.660156 114.636719 132.140625 115.074219 132.601562 115.53125 C 133.058594 115.992188 133.496094 116.472656 133.90625 116.972656 C 134.320312 117.476562 134.707031 117.996094 135.066406 118.535156 C 135.425781 119.078125 135.761719 119.632812 136.066406 120.207031 C 136.371094 120.777344 136.648438 121.367188 136.898438 121.964844 C 137.148438 122.566406 137.367188 123.175781 137.554688 123.796875 C 137.742188 124.417969 137.902344 125.050781 138.027344 125.6875 C 138.152344 126.324219 138.25 126.964844 138.3125 127.609375 C 138.375 128.257812 138.410156 128.90625 138.410156 129.554688 Z M 138.410156 129.554688 " fill-opacity="1" fill-rule="nonzero"/><path fill="#d67aff" d="M 143.367188 228.726562 C 143.367188 229.703125 143.273438 230.671875 143.082031 231.628906 C 142.890625 232.585938 142.609375 233.515625 142.238281 234.417969 C 141.863281 235.320312 141.402344 236.179688 140.863281 236.992188 C 140.320312 237.804688 139.703125 238.554688 139.011719 239.246094 C 138.320312 239.9375 137.570312 240.554688 136.757812 241.09375 C 135.945312 241.636719 135.085938 242.097656 134.183594 242.46875 C 133.28125 242.84375 132.351562 243.125 131.394531 243.316406 C 130.4375 243.507812 129.46875 243.601562 128.492188 243.601562 C 127.515625 243.601562 126.546875 243.507812 125.589844 243.316406 C 124.632812 243.125 123.699219 242.84375 122.796875 242.46875 C 121.894531 242.097656 121.039062 241.636719 120.226562 241.09375 C 119.414062 240.554688 118.664062 239.9375 117.972656 239.246094 C 117.28125 238.554688 116.664062 237.804688 116.121094 236.992188 C 115.578125 236.179688 115.121094 235.320312 114.746094 234.417969 C 114.375 233.515625 114.089844 232.585938 113.902344 231.628906 C 113.710938 230.671875 113.613281 229.703125 113.613281 228.726562 C 113.613281 227.75 113.710938 226.78125 113.902344 225.824219 C 114.089844 224.867188 114.375 223.933594 114.746094 223.03125 C 115.121094 222.128906 115.578125 221.273438 116.121094 220.460938 C 116.664062 219.648438 117.28125 218.898438 117.972656 218.207031 C 118.664062 217.515625 119.414062 216.898438 120.226562 216.355469 C 121.039062 215.8125 121.894531 215.355469 122.796875 214.980469 C 123.699219 214.609375 124.632812 214.324219 125.589844 214.136719 C 126.546875 213.945312 127.515625 213.847656 128.492188 213.847656 C 129.46875 213.847656 130.4375 213.945312 131.394531 214.136719 C 132.351562 214.324219 133.28125 214.609375 134.183594 214.980469 C 135.085938 215.355469 135.945312 215.8125 136.757812 216.355469 C 137.570312 216.898438 138.320312 217.515625 139.011719 218.207031 C 139.703125 218.898438 140.320312 219.648438 140.863281 220.460938 C 141.402344 221.273438 141.863281 222.128906 142.238281 223.03125 C 142.609375 223.933594 142.890625 224.867188 143.082031 225.824219 C 143.273438 226.78125 143.367188 227.75 143.367188 228.726562 Z M 143.367188 228.726562 " fill-opacity="1" fill-rule="nonzero"/><path fill="#ffc2e5" d="M 251.847656 65.613281 L 250.425781 74.152344 C 249.257812 81.167969 253.21875 88.027344 259.875 90.527344 L 272.472656 95.25 C 280.792969 98.367188 289.972656 93.546875 292.125 84.925781 L 296.617188 66.96875 C 299.414062 55.777344 288.960938 45.796875 277.910156 49.113281 L 262.246094 53.8125 C 256.816406 55.441406 252.78125 60.019531 251.847656 65.613281 Z M 251.847656 65.613281 " fill-opacity="1" fill-rule="nonzero"/><path fill="#ffc2e5" d="M 302.042969 119.636719 L 296.054688 122.632812 C 291.359375 124.980469 289.304688 130.582031 291.375 135.410156 L 296.191406 146.652344 C 299.109375 153.457031 308.1875 154.78125 312.925781 149.09375 L 320.679688 139.792969 C 324.3125 135.429688 323.550781 128.914062 319.007812 125.507812 L 312.429688 120.574219 C 309.425781 118.320312 305.402344 117.957031 302.042969 119.636719 Z M 302.042969 119.636719 " fill-opacity="1" fill-rule="nonzero"/><path fill="#ffc2e5" d="M 341.710938 89.886719 C 341.710938 90.535156 341.648438 91.179688 341.519531 91.820312 C 341.394531 92.457031 341.203125 93.078125 340.957031 93.679688 C 340.707031 94.28125 340.402344 94.851562 340.039062 95.394531 C 339.675781 95.933594 339.265625 96.4375 338.804688 96.898438 C 338.347656 97.355469 337.84375 97.769531 337.304688 98.128906 C 336.761719 98.492188 336.191406 98.796875 335.589844 99.046875 C 334.988281 99.296875 334.367188 99.484375 333.730469 99.609375 C 333.089844 99.738281 332.445312 99.800781 331.792969 99.800781 C 331.144531 99.800781 330.5 99.738281 329.859375 99.609375 C 329.222656 99.484375 328.601562 99.296875 328 99.046875 C 327.398438 98.796875 326.828125 98.492188 326.285156 98.128906 C 325.746094 97.769531 325.242188 97.355469 324.78125 96.898438 C 324.324219 96.4375 323.910156 95.933594 323.550781 95.394531 C 323.1875 94.851562 322.882812 94.28125 322.632812 93.679688 C 322.382812 93.078125 322.195312 92.457031 322.070312 91.820312 C 321.941406 91.179688 321.878906 90.535156 321.878906 89.886719 C 321.878906 89.234375 321.941406 88.589844 322.070312 87.949219 C 322.195312 87.3125 322.382812 86.691406 322.632812 86.089844 C 322.882812 85.488281 323.1875 84.917969 323.550781 84.375 C 323.910156 83.835938 324.324219 83.332031 324.78125 82.875 C 325.242188 82.414062 325.746094 82.003906 326.285156 81.640625 C 326.828125 81.277344 327.398438 80.972656 328 80.722656 C 328.601562 80.476562 329.222656 80.285156 329.859375 80.160156 C 330.5 80.03125 331.144531 79.96875 331.792969 79.96875 C 332.445312 79.96875 333.089844 80.03125 333.730469 80.160156 C 334.367188 80.285156 334.988281 80.476562 335.589844 80.722656 C 336.191406 80.972656 336.761719 81.277344 337.304688 81.640625 C 337.84375 82.003906 338.347656 82.414062 338.804688 82.875 C 339.265625 83.332031 339.675781 83.835938 340.039062 84.375 C 340.402344 84.917969 340.707031 85.488281 340.957031 86.089844 C 341.203125 86.691406 341.394531 87.3125 341.519531 87.949219 C 341.648438 88.589844 341.710938 89.234375 341.710938 89.886719 Z M 341.710938 89.886719 " fill-opacity="1" fill-rule="nonzero"/><path fill="#f10090" d="M 206.589844 314.261719 C 121.695312 314.261719 52.875 245.441406 52.875 160.546875 C 52.875 122.832031 66.476562 88.3125 89.015625 61.566406 C 55.554688 89.761719 34.277344 131.957031 34.277344 179.140625 C 34.277344 264.035156 103.101562 332.859375 187.996094 332.859375 C 235.207031 332.859375 277.355469 311.632812 305.523438 278.203125 C 278.808594 300.703125 244.316406 314.261719 206.589844 314.261719 Z M 206.589844 314.261719 " fill-opacity="1" fill-rule="nonzero"/><path fill="#f10090" d="M 274.675781 83.738281 C 266.359375 80.621094 261.414062 72.050781 262.875 63.289062 L 264.570312 53.117188 L 262.25 53.8125 C 256.816406 55.441406 252.78125 60.019531 251.847656 65.617188 L 250.425781 74.152344 C 249.257812 81.167969 253.21875 88.027344 259.875 90.527344 L 272.472656 95.25 C 279.152344 97.753906 286.324219 95.085938 290.03125 89.496094 Z M 274.675781 83.738281 " fill-opacity="1" fill-rule="nonzero"/><path fill="#f10090" d="M 306.773438 140.261719 L 301.316406 127.527344 C 300.292969 125.136719 300.207031 122.589844 300.828125 120.246094 L 296.054688 122.632812 C 291.359375 124.980469 289.304688 130.582031 291.375 135.40625 L 296.191406 146.648438 C 299.109375 153.457031 308.1875 154.78125 312.925781 149.089844 L 314.851562 146.78125 C 311.445312 146.085938 308.328125 143.890625 306.773438 140.261719 Z M 306.773438 140.261719 " fill-opacity="1" fill-rule="nonzero"/><path fill="#730c8d" d="M 129.113281 138.851562 C 118.15625 138.851562 109.277344 129.972656 109.277344 119.019531 C 109.277344 116.273438 109.835938 113.660156 110.84375 111.285156 C 103.730469 114.300781 98.742188 121.34375 98.742188 129.554688 C 98.742188 140.507812 107.621094 149.390625 118.574219 149.390625 C 126.785156 149.390625 133.832031 144.398438 136.84375 137.289062 C 134.46875 138.292969 131.855469 138.851562 129.113281 138.851562 Z M 129.113281 138.851562 " fill-opacity="1" fill-rule="nonzero"/><path fill="#730c8d" d="M 136.242188 235.855469 C 128.023438 235.855469 121.363281 229.195312 121.363281 220.980469 C 121.363281 218.882812 121.808594 216.890625 122.59375 215.082031 C 117.316406 217.367188 113.617188 222.609375 113.617188 228.726562 C 113.617188 236.945312 120.277344 243.601562 128.492188 243.601562 C 134.609375 243.601562 139.855469 239.90625 142.140625 234.628906 C 140.328125 235.410156 138.339844 235.855469 136.242188 235.855469 Z M 136.242188 235.855469 " fill-opacity="1" fill-rule="nonzero"/><path fill="#d67aff" d="M 242.539062 243.601562 C 242.539062 244.25 242.507812 244.898438 242.445312 245.546875 C 242.378906 246.191406 242.285156 246.835938 242.160156 247.472656 C 242.03125 248.109375 241.875 248.738281 241.6875 249.359375 C 241.496094 249.980469 241.277344 250.589844 241.03125 251.191406 C 240.78125 251.792969 240.503906 252.378906 240.199219 252.949219 C 239.890625 253.523438 239.558594 254.082031 239.199219 254.621094 C 238.835938 255.160156 238.449219 255.679688 238.039062 256.183594 C 237.625 256.683594 237.191406 257.167969 236.730469 257.625 C 236.273438 258.085938 235.792969 258.519531 235.289062 258.933594 C 234.785156 259.34375 234.265625 259.730469 233.726562 260.089844 C 233.1875 260.453125 232.628906 260.785156 232.054688 261.09375 C 231.484375 261.398438 230.898438 261.675781 230.296875 261.925781 C 229.695312 262.171875 229.085938 262.390625 228.464844 262.582031 C 227.84375 262.769531 227.214844 262.925781 226.578125 263.054688 C 225.941406 263.179688 225.296875 263.273438 224.652344 263.339844 C 224.003906 263.402344 223.355469 263.433594 222.707031 263.433594 C 222.058594 263.433594 221.410156 263.402344 220.765625 263.339844 C 220.117188 263.273438 219.476562 263.179688 218.839844 263.054688 C 218.203125 262.925781 217.574219 262.769531 216.949219 262.582031 C 216.328125 262.390625 215.71875 262.171875 215.117188 261.925781 C 214.519531 261.675781 213.933594 261.398438 213.359375 261.09375 C 212.785156 260.785156 212.230469 260.453125 211.691406 260.089844 C 211.148438 259.730469 210.628906 259.34375 210.125 258.933594 C 209.625 258.519531 209.144531 258.085938 208.683594 257.625 C 208.226562 257.167969 207.789062 256.683594 207.378906 256.183594 C 206.964844 255.679688 206.578125 255.160156 206.21875 254.621094 C 205.859375 254.082031 205.523438 253.523438 205.21875 252.949219 C 204.910156 252.378906 204.632812 251.792969 204.386719 251.191406 C 204.136719 250.589844 203.917969 249.980469 203.730469 249.359375 C 203.542969 248.738281 203.382812 248.109375 203.257812 247.472656 C 203.128906 246.835938 203.035156 246.191406 202.972656 245.546875 C 202.90625 244.898438 202.875 244.25 202.875 243.601562 C 202.875 242.953125 202.90625 242.304688 202.972656 241.660156 C 203.035156 241.011719 203.128906 240.371094 203.257812 239.734375 C 203.382812 239.097656 203.542969 238.46875 203.730469 237.84375 C 203.917969 237.222656 204.136719 236.613281 204.386719 236.011719 C 204.632812 235.414062 204.910156 234.828125 205.21875 234.253906 C 205.523438 233.679688 205.859375 233.125 206.21875 232.585938 C 206.578125 232.042969 206.964844 231.523438 207.378906 231.019531 C 207.789062 230.519531 208.226562 230.039062 208.683594 229.578125 C 209.144531 229.121094 209.625 228.683594 210.125 228.273438 C 210.628906 227.859375 211.148438 227.472656 211.691406 227.113281 C 212.230469 226.75 212.785156 226.417969 213.359375 226.113281 C 213.933594 225.804688 214.519531 225.527344 215.117188 225.28125 C 215.71875 225.03125 216.328125 224.8125 216.949219 224.625 C 217.574219 224.4375 218.203125 224.277344 218.839844 224.152344 C 219.476562 224.023438 220.117188 223.929688 220.765625 223.867188 C 221.410156 223.800781 222.058594 223.769531 222.707031 223.769531 C 223.355469 223.769531 224.003906 223.800781 224.652344 223.867188 C 225.296875 223.929688 225.941406 224.023438 226.578125 224.152344 C 227.214844 224.277344 227.84375 224.4375 228.464844 224.625 C 229.085938 224.8125 229.695312 225.03125 230.296875 225.28125 C 230.898438 225.527344 231.484375 225.804688 232.054688 226.113281 C 232.628906 226.417969 233.1875 226.75 233.726562 227.113281 C 234.265625 227.472656 234.785156 227.859375 235.289062 228.273438 C 235.792969 228.683594 236.273438 229.121094 236.730469 229.578125 C 237.191406 230.039062 237.625 230.519531 238.039062 231.019531 C 238.449219 231.523438 238.835938 232.042969 239.199219 232.585938 C 239.558594 233.125 239.890625 233.679688 240.199219 234.253906 C 240.503906 234.828125 240.78125 235.414062 241.03125 236.011719 C 241.277344 236.613281 241.496094 237.222656 241.6875 237.84375 C 241.875 238.46875 242.03125 239.097656 242.160156 239.734375 C 242.285156 240.371094 242.378906 241.011719 242.445312 241.660156 C 242.507812 242.304688 242.539062 242.953125 242.539062 243.601562 Z M 242.539062 243.601562 " fill-opacity="1" fill-rule="nonzero"/><path fill="#730c8d" d="M 233.242188 252.898438 C 222.289062 252.898438 213.410156 244.019531 213.410156 233.066406 C 213.410156 230.324219 213.964844 227.710938 214.972656 225.332031 C 207.859375 228.347656 202.871094 235.390625 202.871094 243.601562 C 202.871094 254.558594 211.753906 263.4375 222.707031 263.4375 C 230.917969 263.4375 237.960938 258.445312 240.976562 251.335938 C 238.597656 252.34375 235.988281 252.898438 233.242188 252.898438 Z M 233.242188 252.898438 " fill-opacity="1" fill-rule="nonzero"/><path fill="#d67aff" d="M 192.746094 154.347656 C 192.746094 155 192.679688 155.644531 192.554688 156.28125 C 192.425781 156.921875 192.238281 157.539062 191.988281 158.140625 C 191.742188 158.742188 191.433594 159.316406 191.074219 159.855469 C 190.710938 160.398438 190.300781 160.898438 189.839844 161.359375 C 189.378906 161.820312 188.878906 162.230469 188.335938 162.59375 C 187.796875 162.953125 187.222656 163.261719 186.621094 163.507812 C 186.019531 163.757812 185.402344 163.945312 184.761719 164.074219 C 184.125 164.199219 183.480469 164.265625 182.828125 164.265625 C 182.175781 164.265625 181.53125 164.199219 180.894531 164.074219 C 180.253906 163.945312 179.636719 163.757812 179.035156 163.507812 C 178.433594 163.261719 177.859375 162.953125 177.320312 162.59375 C 176.777344 162.230469 176.277344 161.820312 175.816406 161.359375 C 175.355469 160.898438 174.945312 160.398438 174.582031 159.855469 C 174.222656 159.316406 173.917969 158.742188 173.667969 158.140625 C 173.417969 157.539062 173.230469 156.921875 173.101562 156.28125 C 172.976562 155.644531 172.914062 155 172.914062 154.347656 C 172.914062 153.695312 172.976562 153.050781 173.101562 152.414062 C 173.230469 151.773438 173.417969 151.15625 173.667969 150.554688 C 173.917969 149.953125 174.222656 149.378906 174.582031 148.839844 C 174.945312 148.296875 175.355469 147.796875 175.816406 147.335938 C 176.277344 146.875 176.777344 146.464844 177.320312 146.101562 C 177.859375 145.742188 178.433594 145.4375 179.035156 145.1875 C 179.636719 144.9375 180.253906 144.75 180.894531 144.621094 C 181.53125 144.496094 182.175781 144.433594 182.828125 144.433594 C 183.480469 144.433594 184.125 144.496094 184.761719 144.621094 C 185.402344 144.75 186.019531 144.9375 186.621094 145.1875 C 187.222656 145.4375 187.796875 145.742188 188.335938 146.101562 C 188.878906 146.464844 189.378906 146.875 189.839844 147.335938 C 190.300781 147.796875 190.710938 148.296875 191.074219 148.839844 C 191.433594 149.378906 191.742188 149.953125 191.988281 150.554688 C 192.238281 151.15625 192.425781 151.773438 192.554688 152.414062 C 192.679688 153.050781 192.746094 153.695312 192.746094 154.347656 Z M 192.746094 154.347656 " fill-opacity="1" fill-rule="nonzero"/><path fill="#21042e" d="M 118.574219 105.082031 C 105.082031 105.082031 94.101562 116.058594 94.101562 129.554688 C 94.101562 143.046875 105.082031 154.027344 118.574219 154.027344 C 132.070312 154.027344 143.050781 143.046875 143.050781 129.554688 C 143.050781 116.058594 132.070312 105.082031 118.574219 105.082031 Z M 118.574219 144.75 C 110.195312 144.75 103.378906 137.933594 103.378906 129.554688 C 103.378906 121.175781 110.195312 114.359375 118.574219 114.359375 C 126.953125 114.359375 133.769531 121.175781 133.769531 129.554688 C 133.769531 137.933594 126.953125 144.75 118.574219 144.75 Z M 118.574219 144.75 " fill-opacity="1" fill-rule="nonzero"/><path fill="#21042e" d="M 198.230469 243.601562 C 198.230469 257.097656 209.210938 268.078125 222.707031 268.078125 C 236.199219 268.078125 247.179688 257.097656 247.179688 243.601562 C 247.179688 230.109375 236.199219 219.128906 222.707031 219.128906 C 209.210938 219.128906 198.230469 230.109375 198.230469 243.601562 Z M 222.707031 228.40625 C 231.085938 228.40625 237.902344 235.226562 237.902344 243.601562 C 237.902344 251.980469 231.085938 258.796875 222.707031 258.796875 C 214.328125 258.796875 207.511719 251.980469 207.511719 243.601562 C 207.511719 235.226562 214.328125 228.40625 222.707031 228.40625 Z M 222.707031 228.40625 " fill-opacity="1" fill-rule="nonzero"/><path fill="#21042e" d="M 128.492188 209.210938 C 117.730469 209.210938 108.976562 217.96875 108.976562 228.726562 C 108.976562 239.488281 117.730469 248.242188 128.492188 248.242188 C 139.253906 248.242188 148.007812 239.488281 148.007812 228.726562 C 148.007812 217.96875 139.253906 209.210938 128.492188 209.210938 Z M 128.492188 238.964844 C 122.847656 238.964844 118.253906 234.371094 118.253906 228.726562 C 118.253906 223.082031 122.847656 218.492188 128.492188 218.492188 C 134.136719 218.492188 138.730469 223.082031 138.730469 228.726562 C 138.730469 234.371094 134.136719 238.964844 128.492188 238.964844 Z M 128.492188 238.964844 " fill-opacity="1" fill-rule="nonzero"/><path fill="#21042e" d="M 168.480469 154.347656 C 168.480469 162.375 175.011719 168.90625 183.039062 168.90625 C 191.0625 168.90625 197.59375 162.375 197.59375 154.347656 C 197.59375 146.320312 191.0625 139.792969 183.039062 139.792969 C 175.011719 139.792969 168.480469 146.320312 168.480469 154.347656 Z M 183.039062 149.070312 C 185.949219 149.070312 188.316406 151.4375 188.316406 154.347656 C 188.316406 157.257812 185.945312 159.625 183.039062 159.625 C 180.128906 159.625 177.757812 157.257812 177.757812 154.347656 C 177.757812 151.4375 180.128906 149.070312 183.039062 149.070312 Z M 183.039062 149.070312 " fill-opacity="1" fill-rule="nonzero"/><path fill="#21042e" d="M 277.253906 228.410156 C 277.953125 228.410156 278.660156 228.25 279.324219 227.917969 C 281.617188 226.773438 282.546875 223.984375 281.402344 221.695312 L 276.441406 211.777344 C 275.296875 209.484375 272.507812 208.554688 270.21875 209.703125 C 267.925781 210.847656 266.996094 213.632812 268.144531 215.925781 L 273.101562 225.84375 C 273.914062 227.46875 275.554688 228.410156 277.253906 228.410156 Z M 277.253906 228.410156 " fill-opacity="1" fill-rule="nonzero"/><path fill="#21042e" d="M 222.710938 198.65625 C 223.40625 198.65625 224.113281 198.5 224.78125 198.167969 L 234.699219 193.207031 C 236.988281 192.0625 237.917969 189.277344 236.773438 186.984375 C 235.625 184.691406 232.839844 183.761719 230.546875 184.910156 L 220.632812 189.867188 C 218.339844 191.011719 217.410156 193.800781 218.554688 196.09375 C 219.371094 197.71875 221.007812 198.65625 222.710938 198.65625 Z M 222.710938 198.65625 " fill-opacity="1" fill-rule="nonzero"/><path fill="#21042e" d="M 84.671875 186.175781 C 85.488281 187.800781 87.125 188.738281 88.828125 188.738281 C 89.523438 188.738281 90.230469 188.582031 90.898438 188.25 C 93.191406 187.101562 94.117188 184.316406 92.972656 182.023438 L 88.015625 172.109375 C 86.867188 169.816406 84.082031 168.886719 81.789062 170.03125 C 79.5 171.179688 78.570312 173.964844 79.714844 176.257812 Z M 84.671875 186.175781 " fill-opacity="1" fill-rule="nonzero"/><path fill="#21042e" d="M 161.128906 264.246094 L 151.210938 269.203125 C 148.917969 270.351562 147.992188 273.136719 149.136719 275.429688 C 149.949219 277.054688 151.585938 277.996094 153.289062 277.996094 C 153.988281 277.996094 154.695312 277.835938 155.359375 277.503906 L 165.277344 272.546875 C 167.570312 271.398438 168.5 268.613281 167.351562 266.320312 C 166.207031 264.027344 163.421875 263.101562 161.128906 264.246094 Z M 161.128906 264.246094 " fill-opacity="1" fill-rule="nonzero"/><path fill="#21042e" d="M 166.484375 76.6875 L 161.523438 71.730469 C 159.714844 69.917969 156.777344 69.917969 154.964844 71.730469 C 153.152344 73.539062 153.152344 76.476562 154.964844 78.289062 L 159.921875 83.25 C 160.828125 84.15625 162.015625 84.609375 163.203125 84.609375 C 164.390625 84.609375 165.578125 84.15625 166.484375 83.25 C 168.296875 81.4375 168.296875 78.5 166.484375 76.6875 Z M 166.484375 76.6875 " fill-opacity="1" fill-rule="nonzero"/><path fill="#21042e" d="M 145.046875 185.777344 C 143.234375 187.589844 143.234375 190.527344 145.046875 192.339844 L 150.003906 197.296875 C 150.910156 198.203125 152.097656 198.65625 153.285156 198.65625 C 154.472656 198.65625 155.660156 198.203125 156.566406 197.296875 C 158.378906 195.484375 158.378906 192.546875 156.566406 190.734375 L 151.605469 185.777344 C 149.796875 183.964844 146.859375 183.964844 145.046875 185.777344 Z M 145.046875 185.777344 " fill-opacity="1" fill-rule="nonzero"/><path fill="#21042e" d="M 203.191406 293.1875 L 203.191406 298.148438 C 203.191406 300.710938 205.269531 302.789062 207.832031 302.789062 C 210.390625 302.789062 212.46875 300.710938 212.46875 298.148438 L 212.46875 293.1875 C 212.46875 290.628906 210.390625 288.550781 207.832031 288.550781 C 205.269531 288.550781 203.191406 290.628906 203.191406 293.1875 Z M 203.191406 293.1875 " fill-opacity="1" fill-rule="nonzero"/><path fill="#21042e" d="M 181.359375 113 L 186.316406 108.042969 C 188.128906 106.230469 188.128906 103.292969 186.316406 101.480469 C 184.507812 99.671875 181.566406 99.671875 179.757812 101.480469 L 174.796875 106.441406 C 172.988281 108.253906 172.988281 111.191406 174.796875 113 C 175.703125 113.90625 176.890625 114.359375 178.078125 114.359375 C 179.265625 114.359375 180.453125 113.90625 181.359375 113 Z M 181.359375 113 " fill-opacity="1" fill-rule="nonzero"/><path fill="#21042e" d="M 258.25 94.867188 L 270.84375 99.59375 C 273.054688 100.421875 275.375 100.832031 277.691406 100.832031 C 280.820312 100.832031 283.941406 100.082031 286.769531 98.597656 C 291.6875 96.015625 295.28125 91.441406 296.628906 86.050781 L 301.117188 68.09375 C 302.839844 61.199219 300.800781 54.152344 295.660156 49.246094 C 290.519531 44.335938 283.382812 42.625 276.574219 44.667969 L 260.914062 49.367188 C 253.839844 51.488281 248.484375 57.566406 247.273438 64.851562 L 245.851562 73.386719 C 244.320312 82.566406 249.535156 91.601562 258.25 94.867188 Z M 255.003906 74.914062 L 256.425781 66.378906 C 257.0625 62.558594 259.871094 59.367188 263.582031 58.253906 L 279.242188 53.558594 C 280.234375 53.257812 281.238281 53.113281 282.230469 53.113281 C 284.8125 53.113281 287.304688 54.097656 289.253906 55.957031 C 291.949219 58.53125 293.019531 62.226562 292.117188 65.84375 L 287.625 83.800781 C 286.910156 86.671875 285.074219 89.007812 282.453125 90.382812 C 279.835938 91.757812 276.871094 91.941406 274.101562 90.90625 L 261.507812 86.179688 C 256.933594 84.46875 254.199219 79.730469 255.003906 74.914062 Z M 255.003906 74.914062 " fill-opacity="1" fill-rule="nonzero"/><path fill="#21042e" d="M 293.980469 118.480469 C 287.097656 121.925781 284.078125 130.160156 287.109375 137.238281 L 291.929688 148.476562 C 293.941406 153.167969 298.15625 156.410156 303.207031 157.148438 C 303.921875 157.253906 304.640625 157.304688 305.347656 157.304688 C 309.632812 157.304688 313.6875 155.425781 316.492188 152.0625 L 324.242188 142.761719 C 326.820312 139.664062 327.984375 135.757812 327.515625 131.753906 C 327.050781 127.75 325.015625 124.214844 321.792969 121.796875 L 315.210938 116.863281 C 310.773438 113.53125 304.933594 113.007812 299.96875 115.488281 Z M 304.121094 123.789062 C 304.871094 123.410156 305.679688 123.226562 306.484375 123.226562 C 307.601562 123.226562 308.710938 123.582031 309.644531 124.285156 L 316.226562 129.21875 C 317.394531 130.097656 318.132812 131.378906 318.300781 132.832031 C 318.46875 134.28125 318.046875 135.699219 317.113281 136.820312 L 309.363281 146.121094 C 308.160156 147.566406 306.402344 148.238281 304.546875 147.964844 C 302.6875 147.695312 301.195312 146.546875 300.457031 144.824219 L 295.636719 133.582031 C 294.539062 131.015625 295.632812 128.027344 298.128906 126.78125 L 304.121094 123.789062 C 304.117188 123.789062 304.117188 123.789062 304.121094 123.789062 Z M 304.121094 123.789062 " fill-opacity="1" fill-rule="nonzero"/><g clip-path="url(#3f869c567f)"><path fill="#21042e" d="M 331.796875 104.441406 C 339.824219 104.441406 346.351562 97.910156 346.351562 89.886719 C 346.351562 81.859375 339.820312 75.328125 331.796875 75.328125 C 323.769531 75.328125 317.238281 81.859375 317.238281 89.886719 C 317.238281 97.914062 323.769531 104.441406 331.796875 104.441406 Z M 331.796875 84.609375 C 334.707031 84.609375 337.074219 86.976562 337.074219 89.886719 C 337.074219 92.796875 334.707031 95.164062 331.796875 95.164062 C 328.886719 95.164062 326.519531 92.796875 326.519531 89.886719 C 326.519531 86.976562 328.886719 84.609375 331.796875 84.609375 Z M 331.796875 84.609375 " fill-opacity="1" fill-rule="nonzero"/></g><path fill="#21042e" d="M 333.222656 193.867188 C 331.105469 194.179688 328.957031 194.335938 326.835938 194.335938 C 307.246094 194.335938 290.058594 181.804688 284.066406 163.152344 C 282.425781 158.050781 278.230469 154.28125 273.113281 153.304688 C 237.972656 146.617188 212.46875 115.773438 212.46875 79.96875 C 212.46875 65.183594 216.800781 50.878906 224.992188 38.601562 C 226.789062 35.910156 227.128906 32.53125 225.894531 29.5625 C 224.660156 26.585938 222.023438 24.433594 218.839844 23.804688 C 203.054688 20.679688 186.859375 19.972656 170.707031 21.714844 C 138.378906 25.195312 108.246094 38.527344 83.570312 60.277344 C 81.648438 61.96875 81.460938 64.902344 83.15625 66.824219 C 84.851562 68.746094 87.78125 68.929688 89.703125 67.238281 C 112.9375 46.765625 141.289062 34.214844 171.699219 30.941406 C 186.921875 29.300781 202.175781 29.964844 217.035156 32.90625 C 217.144531 32.929688 217.261719 32.96875 217.324219 33.117188 C 217.382812 33.257812 217.335938 33.363281 217.273438 33.453125 C 208.0625 47.257812 203.191406 63.34375 203.191406 79.96875 C 203.191406 120.222656 231.867188 154.898438 271.378906 162.421875 C 273.15625 162.757812 274.632812 164.128906 275.230469 165.992188 C 282.460938 188.496094 303.199219 203.613281 326.835938 203.613281 C 329.40625 203.613281 332.007812 203.421875 334.570312 203.046875 C 334.914062 202.996094 335.085938 203.199219 335.09375 203.25 C 330.621094 230.753906 318.472656 256.425781 299.957031 277.5 C 298.265625 279.425781 298.453125 282.355469 300.378906 284.046875 C 301.261719 284.820312 302.351562 285.199219 303.441406 285.199219 C 304.726562 285.199219 306.007812 284.667969 306.925781 283.625 C 326.59375 261.242188 339.5 233.964844 344.253906 204.742188 C 344.738281 201.769531 343.800781 198.832031 341.679688 196.675781 C 339.496094 194.460938 336.335938 193.410156 333.222656 193.867188 Z M 333.222656 193.867188 " fill-opacity="1" fill-rule="nonzero"/><g clip-path="url(#644e34fc99)"><path fill="#21042e" d="M 286.355469 291.109375 C 259.152344 315.039062 224.222656 328.21875 187.996094 328.21875 C 167.113281 328.21875 146.917969 323.988281 127.96875 315.640625 C 109.660156 307.578125 93.382812 296.082031 79.589844 281.472656 C 65.816406 266.886719 55.289062 250.015625 48.304688 231.320312 C 41.039062 211.878906 37.964844 191.367188 39.171875 170.351562 C 41.046875 137.59375 54.164062 105.8125 76.105469 80.851562 C 77.796875 78.929688 77.609375 75.996094 75.683594 74.304688 C 73.757812 72.613281 70.828125 72.800781 69.136719 74.726562 C 45.835938 101.234375 31.902344 135.003906 29.90625 169.820312 C 28.628906 192.128906 31.894531 213.914062 39.613281 234.566406 C 47.035156 254.429688 58.214844 272.355469 72.84375 287.84375 C 87.492188 303.359375 104.785156 315.570312 124.230469 324.132812 C 144.363281 333 165.820312 337.496094 187.996094 337.496094 C 226.480469 337.496094 263.585938 323.496094 292.484375 298.074219 C 294.410156 296.382812 294.597656 293.449219 292.902344 291.527344 C 291.210938 289.601562 288.28125 289.414062 286.355469 291.109375 Z M 286.355469 291.109375 " fill-opacity="1" fill-rule="nonzero"/></g></svg>